PathFileType	4	(X/Y/Z)	./resultDataOpenSim/trcMotMarkerGrf/sub06/qtm-13-03.trc
DataRate	CameraRate	NumFrames	NumMarkers	Units	OrigDataRate	OrigDataStartFrame	OrigNumFrames
250.000000	250.000000	7	24	m	250.000000	137	547
Frame#	Time	L.Toe.Tip			R.Toe.Tip			L.Ankle.Lat			R.Ankle.Lat			L.Ankle.Med			R.Ankle.Med			L.Heel			R.Heel			L.Knee.Lat			R.Knee.Lat			L.Knee.Med			R.Knee.Med			L.Thigh.Upper			R.Thigh.Upper			L.ASIS			R.ASIS			V.Sacral			L.Acromium			R.Acromium			C7			L.Elbow			R.Elbow			L.Wrist.Lat			R.Wrist.Lat
		X1	Y1	Z1	X2	Y2	Z2	X3	Y3	Z3	X4	Y4	Z4	X5	Y5	Z5	X6	Y6	Z6	X7	Y7	Z7	X8	Y8	Z8	X9	Y9	Z9	X10	Y10	Z10	X11	Y11	Z11	X12	Y12	Z12	X13	Y13	Z13	X14	Y14	Z14	X15	Y15	Z15	X16	Y16	Z16	X17	Y17	Z17	X18	Y18	Z18	X19	Y19	Z19	X20	Y20	Z20	X21	Y21	Z21	X22	Y22	Z22	X23	Y23	Z23	X24	Y24	Z24

137	0.544	-0.14663734	0.102681	-0.082716512	-0.72286353	0.035765353	0.088778509	-0.27604484	0.097200439	-0.10022068	-0.85510781	0.069965483	0.10667008	-0.2752294	0.11388763	-0.014873133	-0.83220749	0.085922164	0.019833775	-0.33055794	0.044125266	-0.047799331	-0.91203368	0.050275257	0.043509968	-0.37384172	0.45445668	-0.10003456	-0.70006574	0.42648227	0.1400128	-0.39412848	0.44575428	0.024365719	-0.73154829	0.42894809	0.0094536643	-0.55924804	0.80179127	-0.14601162	-0.61529872	0.78356532	0.20014332	-0.50071224	0.84592644	-0.090992428	-0.51274994	0.83553125	0.15534181	-0.69370405	0.91478264	0.030400809	-0.57858447	1.3212761	-0.15933076	-0.54995815	1.3169488	0.19933986	-0.64092805	1.3548249	0.02552196	-0.6842784	1.0282265	-0.20927492	-0.54554522	1.0054756	0.31002551	-0.60393336	0.80220135	-0.26174442	-0.30885769	0.93365826	0.27282979
138	0.548	-0.13069352	0.10603944	-0.081538486	-0.72276917	0.035749453	0.088740551	-0.26020396	0.098720378	-0.1004051	-0.85491207	0.070543656	0.10628739	-0.26061566	0.1151736	-0.015049244	-0.83142037	0.086231802	0.019375426	-0.31397736	0.044453266	-0.049437431	-0.91170435	0.051055456	0.042920641	-0.36667752	0.45259684	-0.099415814	-0.69609877	0.42557034	0.13975485	-0.38725751	0.44329724	0.025183689	-0.72704955	0.42819791	0.0090920238	-0.55175926	0.79928854	-0.146106	-0.60610111	0.78243371	0.19910032	-0.49342662	0.84352084	-0.091006691	-0.50677545	0.8333052	0.15595957	-0.68605831	0.91306447	0.028592836	-0.57211473	1.3191401	-0.15966407	-0.54358742	1.3148319	0.19917793	-0.63469805	1.3530958	0.025276748	-0.67948264	1.0270334	-0.20920204	-0.5368957	1.0034808	0.31024517	-0.6015666	0.80047768	-0.26272904	-0.29947504	0.93494786	0.27159174
139	0.552	-0.11544338	0.10942208	-0.080263761	-0.72265586	0.03573802	0.088680618	-0.24495197	0.10022221	-0.10041726	-0.8548153	0.071133009	0.10591684	-0.24656943	0.11638177	-0.015059581	-0.83059715	0.086567372	0.018985401	-0.29799433	0.044832772	-0.050470582	-0.91144556	0.051971658	0.042542226	-0.35946727	0.45084016	-0.098901592	-0.69200626	0.42464424	0.13952797	-0.38044838	0.44092749	0.025859326	-0.72241029	0.4274166	0.0087370687	-0.54421619	0.79677757	-0.14618533	-0.59703236	0.78118155	0.1980426	-0.4860786	0.84109355	-0.091009639	-0.50080245	0.83102081	0.15663672	-0.67877247	0.91127079	0.026867656	-0.56561673	1.3169961	-0.16000159	-0.53725272	1.3126838	0.19900723	-0.62846922	1.3513093	0.0250053	-0.67466795	1.025836	-0.20919762	-0.52824548	1.0014645	0.3104081	-0.59924347	0.7987133	-0.26371461	-0.29017383	0.93614871	0.2703669
140	0.556	-0.10089831	0.11272671	-0.078933991	-0.72253319	0.035719634	0.088603195	-0.23032732	0.10165342	-0.10026749	-0.85460682	0.071773393	0.10557395	-0.23305353	0.11747955	-0.014913196	-0.82976197	0.08694096	0.018644924	-0.28271538	0.045218865	-0.050958912	-0.91130563	0.053027193	0.042464223	-0.35208165	0.44919824	-0.098503804	-0.68780195	0.42369985	0.13933533	-0.37367825	0.43864593	0.026432015	-0.71763405	0.42659328	0.0083965931	-0.53665254	0.79426691	-0.1462537	-0.58890491	0.77976532	0.19713385	-0.4786774	0.83865683	-0.091003133	-0.49474807	0.82884707	0.15717377	-0.67207536	0.90935967	0.025246731	-0.55911625	1.3148553	-0.16034591	-0.53095588	1.3105138	0.19883008	-0.62219182	1.3494657	0.024717788	-0.66979648	1.024605	-0.20915809	-0.51960978	0.99944029	0.31051634	-0.59708035	0.79689273	-0.26474238	-0.28096053	0.93724867	0.26915029
141	0.56	-0.087044047	0.11583664	-0.077602688	-0.72241202	0.035692653	0.088521426	-0.21634648	0.10296286	-0.099972698	-0.85422495	0.072484625	0.10526923	-0.22005465	0.11843529	-0.014657933	-0.82893173	0.087360977	0.018340561	-0.26820245	0.045578211	-0.051163474	-0.91115886	0.054190039	0.042463488	-0.34438279	0.44769469	-0.098176271	-0.68350233	0.42273087	0.139161	-0.36691927	0.43644904	0.026920082	-0.71272342	0.42572016	0.0080702902	-0.52909304	0.79176244	-0.14632924	-0.58205418	0.77821802	0.19651112	-0.47122099	0.83622014	-0.090994936	-0.48850067	0.82681198	0.15747939	-0.66561786	0.90740233	0.023553849	-0.55261707	1.3127227	-0.16069982	-0.5246547	1.3083465	0.19864267	-0.61584559	1.3475901	0.024415057	-0.66483177	1.0233155	-0.20906901	-0.51098949	0.99742546	0.31056231	-0.59493685	0.79508156	-0.26577403	-0.27184501	0.93824494	0.26793463
142	0.564	-0.073847911	0.11862525	-0.07630889	-0.72229565	0.035662404	0.088445821	-0.20300663	0.10410049	-0.099557409	-0.85371241	0.073266415	0.1050129	-0.20755669	0.11921446	-0.014344579	-0.82811187	0.087830282	0.018072936	-0.25446693	0.045898201	-0.051283347	-0.91085647	0.055425267	0.042278324	-0.33639214	0.44635375	-0.097844017	-0.67911207	0.42173392	0.13898849	-0.36013321	0.43433705	0.027325357	-0.70768345	0.42479324	0.0077563593	-0.52154763	0.7892812	-0.14642454	-0.57620729	0.77661878	0.19620444	-0.46368995	0.83379383	-0.09099609	-0.48202262	0.82485874	0.15759554	-0.65887292	0.90547994	0.02170264	-0.54610987	1.3106006	-0.16106645	-0.518298	1.3062063	0.19843884	-0.60943867	1.3457044	0.024092349	-0.65975923	1.0219699	-0.20900499	-0.50236699	0.99543152	0.31053365	-0.59256443	0.79335484	-0.2667296	-0.26283927	0.93914463	0.26672077
143	0.568	-0.061275746	0.12097864	-0.07507943	-0.72218413	0.035634276	0.08838331	-0.19029644	0.10501929	-0.099051887	-0.85311847	0.074120883	0.10481691	-0.19554122	0.11979799	-0.013997945	-0.82729665	0.088348739	0.017851623	-0.24146392	0.046152027	-0.051333824	-0.91040119	0.056732592	0.041925418	-0.32832481	0.44516687	-0.097487289	-0.6746268	0.42070836	0.13881207	-0.35327557	0.43231963	0.02764937	-0.70252288	0.42381192	0.0074557648	-0.51399944	0.78684886	-0.14653014	-0.57080941	0.77501619	0.19610229	-0.45606645	0.83138866	-0.09101264	-0.47541734	0.82294584	0.15764825	-0.65156836	0.90362929	0.019807146	-0.5395843	1.3084938	-0.16144749	-0.51188264	1.3041002	0.19821399	-0.60299177	1.3438274	0.023743612	-0.65457624	1.0206024	-0.20901176	-0.49372952	0.9934629	0.31042728	-0.58989231	0.79171462	-0.26758562	-0.25395153	0.93996011	0.26551975
